<mxfile host="app.diagrams.net" modified="2021-09-23T07:38:41.064Z" agent="5.0 (X11; Linux x86_64) AppleWebKit/537.36 (KHTML, like Gecko) Chrome/93.0.4577.82 Safari/537.36" etag="ZidnyVjrMdpcKwGrR9yu" version="15.3.0" type="github">
  <diagram id="LiROaHDbDjbt8Th-SdVK" name="High Traffic Deployment Strategy">
    <mxGraphModel dx="1250" dy="1005" grid="1" gridSize="10" guides="1" tooltips="1" connect="1" arrows="1" fold="1" page="1" pageScale="1" pageWidth="1100" pageHeight="850" math="0" shadow="0">
      <root>
        <mxCell id="0" />
        <mxCell id="1" parent="0" />
        <mxCell id="Mpn7BKEmGXmCzpp1eHpm-1" value="" style="whiteSpace=wrap;html=1;aspect=fixed;" parent="1" vertex="1">
          <mxGeometry x="90" y="360" width="410" height="410" as="geometry" />
        </mxCell>
        <mxCell id="RgCueGjq5NlWYewc43JU-1" value="System&amp;nbsp;&lt;br&gt;Layer&amp;nbsp;" style="ellipse;whiteSpace=wrap;html=1;aspect=fixed;" vertex="1" parent="1">
          <mxGeometry x="210" y="610" width="140" height="140" as="geometry" />
        </mxCell>
        <mxCell id="RgCueGjq5NlWYewc43JU-2" value="Process&amp;nbsp;&lt;br&gt;Layer&amp;nbsp;" style="ellipse;whiteSpace=wrap;html=1;aspect=fixed;" vertex="1" parent="1">
          <mxGeometry x="210" y="370" width="135" height="135" as="geometry" />
        </mxCell>
      </root>
    </mxGraphModel>
  </diagram>
</mxfile>
